<?xml version="1.0" encoding="UTF-8" standalone="no"?>
<svg
   xmlns:dc="http://purl.org/dc/elements/1.1/"
   xmlns:cc="http://creativecommons.org/ns#"
   xmlns:rdf="http://www.w3.org/1999/02/22-rdf-syntax-ns#"
   xmlns:svg="http://www.w3.org/2000/svg"
   xmlns="http://www.w3.org/2000/svg"
   version="1.1"
   id="svg2"
   viewBox="0 0 1080 1080"
   height="12in"
   width="12in">
  <defs
     id="defs4" />
  <metadata
     id="metadata7">
    <rdf:RDF>
      <cc:Work
         rdf:about="">
        <dc:format>image/svg+xml</dc:format>
        <dc:type
           rdf:resource="http://purl.org/dc/dcmitype/StillImage" />
        <dc:title></dc:title>
      </cc:Work>
    </rdf:RDF>
  </metadata>
  <g
     transform="translate(0,27.63782)"
     id="layer1">
    <g
       transform="matrix(0.72254444,0,0,0.72254444,2906.0967,3458.0965)"
       id="layer1-9">
      <g
         transform="matrix(0.78552379,0,0,0.78552379,-2414.0471,-4243.1355)"
         id="layer1-2" />
      <path
         style="fill:#060606"
         id="path2995"
         d="m -2929.9794,-4473.3901 c -18.947,0.3142 -37.5995,7.0104 -52.2865,21.4791 -15.9213,45.9975 -49.4225,6.6973 -83.5846,10.5555 -52.8942,14.4756 49.9432,22.7101 21.0619,34.8576 -18.8259,17.4765 15.396,16.0971 9.5735,73.0046 -26.8773,48.0361 30.3732,45.4449 37.607,84.3947 16.319,37.8538 83.9508,-11.4452 75.3857,35.8396 -15.9112,23.3756 -39.6622,41.1787 -51.4763,67.3341 -2.3145,20.0551 2.6417,32.5683 -22.5102,48.0888 -47.8861,8.4069 -99.1272,5.4947 -147.2857,12.3474 -35.6205,5.2732 -39.9768,27.807 -25.0386,58.5215 -47.3235,78.7955 -89.5234,160.3826 -134.2755,240.7631 -0.8999,39.4857 -82.549,35.9857 -51.7463,-5.9405 26.5534,4.4084 47.8512,-29.4525 24.1057,-49.3407 -39.9233,18.9434 -30.3112,-45.6465 -11.0955,-12.102 37.2005,8.1013 -23.4034,-60.8022 -40.7,-23.2466 49.5733,8.7372 -10.08,17.8296 -25.2103,2.602 -19.4471,-30.3754 -35.5363,5.2721 -48.5061,16.7661 -7.1149,29.5979 -54.2377,0.7044 -55.0113,31.2245 -21.768,50.0317 65.1785,18.0046 37.2879,66.254 -44.0483,6.537 -101.3713,-4.6873 -134.1528,33.9739 -28.9311,41.6712 32.5982,38.4955 28.1316,75.1894 6.6155,4.2725 13.3082,8.3078 20.0554,12.1511 l 59.1598,0 c 11.7718,-10.6948 11.2031,-38.717 24.8667,-29.0153 35.1744,4.2249 71.809,0.7989 107.6168,0.8837 16.811,-6.7189 6.9374,14.9147 30.0953,28.1316 l 78.7243,0 c -4.7179,-1.7236 -6.5198,-5.043 -3.5595,-10.9483 -4.8693,-44.9447 51.5966,-23.0951 59.3562,-57.6869 2.1771,-25.3297 -37.4374,-31.1572 -37.4597,-48.8497 9.5313,-24.0733 29.3565,-48.9412 36.7478,-67.6042 30.9822,-56.3876 61.9339,-112.8964 92.9619,-169.3294 7.0054,-32.4067 43.8108,-0.8504 51.0099,-31.0773 -13.3575,-15.1676 -4.5834,-28.8565 23.8112,-27.7634 41.4217,-6.0008 92.5161,9.479 121.388,-28.5734 31.7476,16.9734 39.841,93.7266 44.1857,144.2172 -28.7042,26.9697 -80.026,33.5797 -91.5381,76.515 -8.5894,34.0168 -10.8908,74.2575 -43.5229,95.8339 -17.6181,35.5443 -57.6213,-8.7871 -77.0795,22.6083 2.2429,30.6113 38.0389,40.5341 57.4659,59.528 16.5554,31.1391 56.7578,28.5892 65.1003,-7.9534 16.9642,6.4989 40.0239,-4.3235 41.3137,-32.1819 2.9951,-43.6709 17.34,-89.6014 50.6908,-119.3751 30.6951,-25.5467 -4.8121,52.2791 24.6458,64.4866 25.171,20.9829 36.2304,53.3016 60.2644,75.0666 52.2562,30.9222 -46.5776,22.4625 -23.0993,62.0809 l -0.098,1.0065 65.0266,0 c -3.1127,-5.146 9.6105,-15.2031 28.7944,-20.3009 27.0181,-6.3615 52.7999,-33.0778 28.1316,-58.8161 -10.0988,-19.5271 -23.938,-36.6022 -39.2272,-52.8265 -15.9943,-18.7319 -40.5944,-29.6704 -58.6197,-42.8847 14.6116,-41.5374 -16.3744,-93.0671 19.3436,-126.4202 36.2941,-51.4433 22.2936,-138.754 -17.2816,-195.3499 -23.6911,-29.5502 -43.943,-63.8272 -75.3611,-85.8431 -12.5395,-10.1568 -64.4195,-18.8377 -33.5075,-37.3123 23.0861,-10.9963 43.2248,-29.0636 42.7619,-59.4298 -9.9062,-38.7294 20.0189,-73.8555 -3.0194,-110.4889 -16.4103,-28.3797 -48.8396,-45.5686 -80.4179,-45.0448 z m 7.0206,355.1549 c 13.1316,10.8869 -33.8016,46.6125 -52.6792,40.0863 -11.9292,-0.01 9.9104,-13.0737 10.4327,-15.9069 12.8553,-28.7788 32.1266,-7.7812 42.2465,-24.1794 z m -213.8589,90.1389 c 6.8078,-0.1328 12.7671,4.3274 15.465,15.9559 -24.3519,45.7829 -52.2158,91.0914 -76.3185,137.2457 -31.3498,33.9084 -36.9826,76.3479 -64.5602,116.1103 -22.8057,3.1396 -42.8203,2.7048 -23.3203,-22.412 12.3798,-59.4391 92.9859,-134.7391 117.0676,-214.0061 2.5601,-15.6731 18.6699,-32.6404 31.6664,-32.8938 z" />
      <path
         style="fill:#008000"
         id="path2998"
         d="m -3712.7751,-3738.0106 c -4.137,0.032 -3.5654,4.749 7.6343,16.7414 13.1635,54.0032 -26.2278,-22.485 -34.4649,3.7313 -1.2328,46.0129 -15.1977,9.5742 -0.7609,-10.8501 1.2857,-22.419 -29.1827,34.5868 -33.5567,17.5761 -10.3847,-39.7041 -31.2897,-22.3057 -20.6691,13.0348 -12.3785,-25.9089 -26.4273,-3.9857 -28.6962,27.9106 -14.2057,-73.2515 -13.5743,27.685 -16.054,52.2373 0,2.7484 -3e-4,5.4988 0,8.248 l 1178.2857,0 c 4.3907,-16.3895 2.8275,-27.9232 -2.8967,-35.6185 l -930.8211,0 0,-14.2622 c -5.0103,-4.4309 -7.318,-10.8271 -2.332,-18.9262 -23.6071,-0.5923 4.6466,-26.7552 -27.9843,-13.5257 -25.8687,36.4178 -21.3852,-50.93 -37.5825,-24.5477 13.3117,41.7538 -12.4654,18.8421 -23.4675,-4.2467 -8.2238,-9.8494 -21.3152,-17.5439 -26.6341,-17.5024 z" />
    </g>
  </g>
</svg>
